<svg xmlns="http://www.w3.org/2000/svg" width="96" height="96" viewBox="0 0 96 96" role="img" aria-label="微风">
  <title>微风</title>
  <style>
    .blue { fill: none; stroke: #A9C8F0; stroke-width: 3.4; stroke-linecap: round; stroke-linejoin: round; }
    .warm { fill: none; stroke: #FFB86C; stroke-width: 3.6; stroke-linecap: round; stroke-linejoin: round; }
    .thin { stroke-width: 2.2; }
  </style>
  <path class="blue" d="M12 42c15 2 25 0 32-7 6-6 4-13-2-14-5-1-9 3-8 7M15 53c19-4 34-3 51 2 12 3 20-2 18-9-2-6-9-7-12-3M22 67c15-2 28-1 39 4 8 4 13 1 13-4 0-4-3-7-7-6"/><path class="warm" d="M44 47c5-7 12-10 19-10-3 8-10 13-19 10Z"/><path class="warm thin" d="M42 49c5-2 8-4 12-7"/>
</svg>
